<svg xmlns="http://www.w3.org/2000/svg" version="1.1" xmlns:xlink="http://www.w3.org/1999/xlink" xmlns:svgjs="http://svgjs.dev/svgjs" width="1000" height="1000" viewBox="0 0 1000 1000"><g transform="matrix(1,0,0,1,-0.7139396204514696,-0.7139396204514696)"><svg viewBox="0 0 275 275" data-background-color="#ffffff" preserveAspectRatio="xMidYMid meet" height="1000" width="1000" xmlns="http://www.w3.org/2000/svg" xmlns:xlink="http://www.w3.org/1999/xlink"><g id="tight-bounds" transform="matrix(1,0,0,1,0.19633339562417973,0.1963333956241513)"><svg viewBox="0 0 274.60733320875164 274.60733320875164" height="274.60733320875164" width="274.60733320875164"><g><svg></svg></g><g><svg viewBox="0 0 274.60733320875164 274.60733320875164" height="274.60733320875164" width="274.60733320875164"><g><path d="M0 137.304c0-75.831 61.473-137.304 137.304-137.304 75.831 0 137.304 61.473 137.303 137.304 0 75.831-61.473 137.304-137.303 137.303-75.831 0-137.304-61.473-137.304-137.303zM137.304 271.938c74.356 0 134.634-60.278 134.634-134.634 0-74.356-60.278-134.634-134.634-134.635-74.356 0-134.634 60.278-134.634 134.635 0 74.356 60.278 134.634 134.634 134.634z" data-fill-palette-color="tertiary" fill="#ffe126" stroke="transparent"></path><ellipse rx="131.81151994020078" ry="131.81151994020078" cx="137.30366660437582" cy="137.30366660437582" fill="#ffe126" stroke="transparent" stroke-width="0" fill-opacity="1" data-fill-palette-color="tertiary"></ellipse></g><g transform="matrix(1,0,0,1,81.22282525267083,62.48917647402102)"><svg viewBox="0 0 112.16168270340998 149.6289802607096" height="149.6289802607096" width="112.16168270340998"><g><svg viewBox="0 0 112.16168270340998 149.6289802607096" height="149.6289802607096" width="112.16168270340998"><g><svg viewBox="0 0 112.16168270340998 149.6289802607096" height="149.6289802607096" width="112.16168270340998"><g><path d="M0 149.629v-149.629h112.162v149.629z" fill="#ffe126" stroke="transparent" stroke-width="0" rx="0%" data-fill-palette-color="tertiary"></path><path d="M3.494 146.135v-142.641h105.174v142.641z" fill="#59267d" stroke="transparent" stroke-width="0" rx="0%" data-fill-palette-color="quaternary"></path><path d="M10.482 139.147v-128.665h91.197v128.665z" fill="#ffe126" stroke="transparent" stroke-width="0" data-fill-palette-color="tertiary"></path></g><g transform="matrix(1,0,0,1,20.964730483223757,20.964730483223757)"><svg viewBox="0 0 70.23222173696246 107.69951929426207" height="107.69951929426207" width="70.23222173696246"><g><svg viewBox="0 0 70.23222173696246 107.69951929426207" height="107.69951929426207" width="70.23222173696246"><g transform="matrix(1,0,0,1,0,0)"><svg width="70.23222173696246" viewBox="2.049999952316284 -34.900001525878906 23.150001525878906 35.5" height="107.69951929426207" data-palette-color="#59267d"><path d="M13.6 0.6Q8.5 0.6 5.28-1.9 2.05-4.4 2.05-9.7L2.05-9.7 2.1-10.7 6.65-10.7 6.6-9.65Q6.6-6.6 8.47-5.03 10.35-3.45 13.4-3.45L13.4-3.45Q16.85-3.45 18.73-4.93 20.6-6.4 20.6-9.15L20.6-9.15Q20.6-11 19.58-12.18 18.55-13.35 17.03-14.05 15.5-14.75 12.85-15.6L12.85-15.6Q9.6-16.7 7.6-17.7 5.6-18.7 4.17-20.63 2.75-22.55 2.75-25.7L2.75-25.7Q2.75-30.2 5.8-32.55 8.85-34.9 13.65-34.9L13.65-34.9Q18.45-34.9 21.43-32.52 24.4-30.15 24.4-25.25L24.4-25.25 24.4-24.65 19.85-24.65 19.85-25.4Q19.85-27.95 18.13-29.4 16.4-30.85 13.75-30.85L13.75-30.85Q10.9-30.85 9.15-29.63 7.4-28.4 7.4-26.05L7.4-26.05Q7.4-24.3 8.4-23.18 9.4-22.05 10.9-21.38 12.4-20.7 15-19.85L15-19.85Q18.3-18.75 20.33-17.78 22.35-16.8 23.78-14.88 25.2-12.95 25.2-9.9L25.2-9.9Q25.2-4.4 22.08-1.9 18.95 0.6 13.6 0.6L13.6 0.6Z" opacity="1" transform="matrix(1,0,0,1,0,0)" fill="#59267d" class="undefined-text-0" data-fill-palette-color="quaternary" id="text-0"></path></svg></g></svg></g></svg></g></svg></g><g></g></svg></g></svg></g></svg></g><defs></defs></svg><rect width="274.60733320875164" height="274.60733320875164" fill="none" stroke="none" visibility="hidden"></rect></g></svg></g></svg>